<?xml version="1.0" encoding="utf-8"?>
<!-- Generator: Adobe Illustrator 21.0.0, SVG Export Plug-In . SVG Version: 6.00 Build 0)  -->
<svg version="1.1" id="Layer_1" xmlns="http://www.w3.org/2000/svg" xmlns:xlink="http://www.w3.org/1999/xlink" x="0px" y="0px"
	 width="32px" height="32px" viewBox="0 0 32 32" style="enable-background:new 0 0 32 32;" xml:space="preserve">
<style type="text/css">
	.st0{fill:#FFFFFF;}
</style>
<g>
	<circle cx="16" cy="16" r="16"/>
	<g>
		<path class="st0" d="M16,1C16,1,16,1,16,1c-0.1,0-0.2,0-0.3,0c-0.8,0-1.6,0.1-2.4,0.3c-0.3,0.2-0.5,0.4-0.6,0.5
			c-0.1,0.1-0.1,0.1,0.1,0.1C13.3,1.6,14.8,1,16,1c0.2,0,0.4,0,0.6,0.1c0.8,0,2.2,0.1,2.5,1.4c0.1,0.3,0.6,0.1,0.3,0.9
			c-0.4-0.2-1.3-1-3.6-0.9c-0.8,0-1.9,0.2-3.2,0.5C11.2,3.2,10,4.1,9.2,5.3C9.1,5.8,9,6.4,8.9,6.9C8.7,8.3,8.3,8.6,8.6,9.3
			c1.2,2.4-0.3,3.4,0.9,3.8c0.9,0.3,1-0.2,1.7-1.4c0.6-0.9,1.6-1.1,2.1-1.2c0,0,0,0,0,0c0.1,0,0.2,0,0.3,0c0,0,0,0,0,0
			c0.3,0,0.5,0.1,0.8,0.3c0.5,0.2,0.5,0.1,0.5,0.5c0,0.3,0.1,0.4,0.4,0.4c0.2,0,0.3-0.7,0.5-0.7c0.1,0,0.5,0.4,0.5,0.8
			c0,0.4-0.6,1.1-1.2,1.2c-0.1,0-0.2,0-0.3,0c-0.1,0,0.5-0.4,0.7-0.8c0.1-0.1,0-0.3-0.1-0.3c0,0,0,0,0,0c0,0,0,0,0,0c0,0,0,0,0,0
			c0,0,0,0,0,0c0,0,0,0,0,0c0,0,0,0-0.1,0c0,0,0,0-0.1,0c-0.2,0.1-0.7,0-0.9-0.1c0.1-0.1,0.1-0.1,0.2-0.2c0,0,0.1,0,0.1-0.1
			c0,0,0,0,0,0c0.1-0.1,0.1-0.1-0.1-0.5c-0.3,0-0.3,0-0.3,0c0,0.2,0,0.4-0.1,0.6h0c0,0,0,0,0,0.1c0,0-0.1,0.1-0.1,0.1c0,0,0,0,0,0
			c0,0,0,0-0.1,0c0,0,0,0,0,0c-0.1,0.1-0.3,0.1-0.4,0c0,0,0,0-0.1,0c0,0,0,0,0,0c0,0-0.1,0-0.1,0c0,0,0,0,0,0c0,0-0.1,0-0.1-0.1
			c0,0,0,0,0,0c-0.1-0.1-0.2-0.3-0.2-0.6c-0.3,0.1-0.5,0.2-0.6,0.5c0,0,0,0,0.1,0c0,0,0,0,0,0c0,0,0.1,0,0.1,0c0,0,0,0-0.1,0
			c0.1,0,0.1,0.1,0.1,0.1c0,0,0,0,0.1,0c0,0,0,0,0,0c0,0,0.1,0,0.1,0c0,0,0,0,0,0c0,0,0,0,0,0c0,0,0.1,0,0.1,0c0,0,0,0,0,0
			c-0.2,0.2-0.1,0.1-0.3,0.1c0,0,0,0-0.1,0c0,0-0.1,0.1-0.1,0.1c0,0,0,0,0,0c-0.2,0.1-0.4,0.2-0.8,0.1c-0.2,0.1-0.3,0.3-0.3,0.4
			c0,0.2,0.6,0.6,0,0.9c0,0,0,0,0,0h0c-0.1,0-0.1,0.1-0.2,0.1c-0.2,0.3,0.3,0.5,0.1,0.8C11,15,10.8,15,10.5,15.8
			c-0.2,0.8,0.2,1.6,0.6,1.9c0.3,0.3,0.3,1.5,0.4,2.1c0,0,0,0,0,0c0.1,0.6,0.4,0.8,0.8,0.8c0.3,0,0.8-0.4,1-0.2
			c0.1,0.1,0.2-0.1,0.3-0.4c-0.3-0.5-1.3-0.8,0.3-2.3c0.3-0.5,0.7-0.7,1.2-1c0.4-0.2,0.7-1.1,1-1c0.3,0.1,2,0.7,1.7,1
			c0.3-0.2,0.7-0.7,1-0.7c0.1-0.1,0.5,0.9,1.4,1.9c0.5,0.6,0.9,1.8,0.7,2.6c-0.1-0.1-0.1-0.8-0.8-1c-0.2-0.1-0.4,0.1-0.5,0.1
			c-0.1,0-0.4-0.1-0.7-0.2c-1.4,0-2.5,0.4-3.2,0.4c-0.1-0.1-0.3-0.5-0.7-0.5c-0.4,0.5-0.7,0.9-0.8,1.2c-0.2,0.5,0.2,1,1.4,1.8
			c0,1.5,1.6,0.3,2.1-0.6c0.2-0.5-0.5-0.3-0.4-0.9c0.6,0,1.2,0.1,1.8,0.1c0,0.1-0.9,2.1-0.1,2c0.3,0-0.5,1.1,1.4-0.8
			c0.4-0.5-0.3,0.1,0.2-0.6c0.2-0.2,0.2-0.8,0.4-0.9c0.1,0,0.3,0.3,0.7,0.9c0.2-0.4,0.3-0.7,0.5-1.2c1.2-2.9,0.3-5.7,0.3-8.7
			c0.1-1.8-0.1-2.9-0.5-4.6c-0.2-0.5-1.2-2.8-1.5-3.4c1.6,0.4,3.7,11.7,3.9,14c0,0.7-0.6,2.4-0.2,4.5c0.1,0.5,0.5,2.1,2.8,3.4
			c0,0-0.1,0-0.1,0c-0.3,0-0.5,0.3-0.7,0.6c0.2,0.1,0.5,0.2,0.8,0.4C29.4,23.9,31,20.1,31,16C31,7.7,24.3,1,16,1z M12.1,9.2
			c-0.4,0.2-0.3,0.4-0.7,0.4c0-0.3,0.2-0.8,0.5-1.1c0.3-0.4,0.6-0.4,1.1-0.4c1.4,0,2.2-0.5,2.4,0.4C14.9,9.4,13.5,8.5,12.1,9.2z
			 M21.1,12.1c-0.2-0.5,0.3-0.5-0.3-0.7c-0.1,1.4-1.3,0.7-1.2,0c-0.3,0-0.4,0-0.5,0.4c0.1,0.1,0.3,0.2,0.5,0.2
			c0,0.5-0.2-0.1,0.3,0.6l-0.4,0.2c-0.4-0.3-0.5-0.3-0.8-1c-0.1-0.3-0.5-1-0.1-1.2c0.3,0.2,0,0.5,0.4,0.4c0.1-0.1,0.9-0.8,1.8-0.3
			c0,0-0.1,0-0.1,0.1c0.5,0.3,0.5,0.1,0.8,0.6C21.5,11.9,21.5,12,21.1,12.1z M20.4,8.7c0.4,0.2,1.1,0.4,1.2,0.7
			c-0.3,0.2-0.7-0.1-1.2-0.1c-1,0.1-0.9,0.1-1.3-0.2c0-0.2,0.2-0.5,0.3-0.7C20.2,8.4,20.1,8.5,20.4,8.7z"/>
		<path class="st0" d="M20.1,25.5c-0.5,0.1-0.9,0.2-1.4,0.4c-0.8,0.8-1.9,1.5-2.5,1.7c-0.6,0.3-1.6,0.2-1.4-0.4
			c0.1-0.3-0.1-0.7-0.3-1.1c-2.3-0.7-3.2-2.5-3.9-3.4c-0.3-0.4-0.7-0.6-1.1-0.6c-0.8,0.1,0.6,1.7,0.2,3.1c-0.1,0.4-0.3,0.7-0.5,1
			c0.8,2,2.5,3.7,3.8,4.5c0.1,0.1,0.2,0.1,0.4,0.2C14.2,31,15.1,31,16,31c0.1,0,0.2,0,0.3,0c0.3,0,0.7,0,1-0.1
			c0.4-0.1,0.7-0.2,1-0.4c1-0.5,2.3-3.1,2.6-3.2c-0.5-0.6-0.8-1.2-0.8-2.1C20.1,25.4,20.1,25.4,20.1,25.5z"/>
		<path class="st0" d="M19,19c-0.2-0.1-0.3-0.3-0.5-0.5c0,0,0.3,0,0.3-0.1c0,0,0.1-0.2,0.1-0.3c-0.1-0.3-0.1-0.5-0.2-0.5
			c-0.2,0-0.5-0.1-1-0.2c-0.4,0.1-1.2,0.5-2.1,0.6c0,0.5,0.3,0.6,0.7,0.6c-0.2,0.1-0.7,0.3-1,0.4C15.5,19.3,19,19.6,19,19z"/>
	</g>
</g>
</svg>
