<?xml version="1.0" encoding="utf-8"?>
<!-- Generator: Adobe Illustrator 21.0.0, SVG Export Plug-In . SVG Version: 6.00 Build 0)  -->
<svg version="1.1" id="Layer_1" xmlns="http://www.w3.org/2000/svg" xmlns:xlink="http://www.w3.org/1999/xlink" x="0px" y="0px"
	 width="16px" height="16px" viewBox="0 0 16 16" style="enable-background:new 0 0 16 16;" xml:space="preserve">
<style type="text/css">
	.st0{fill:#231F20;}
</style>
<g>
	<path class="st0" d="M16,8.2C16,3.7,12.4,0,8,0S0,3.7,0,8.2c0,3.6,2.3,6.7,5.4,7.8c0.2-0.1,0.4-0.3,0.4-0.6c0-0.5,0-1.6,0-1.6
		S5.5,13.8,5,13.8c-1.2,0-1.6-0.8-1.8-1.3c-0.2-0.6-0.6-0.9-0.9-1.1c-0.2-0.1-0.3-0.3,0-0.3c1.1-0.2,1.4,1.3,2.1,1.5
		c0.5,0.2,1.2,0.1,1.5-0.1c0-0.5,0.4-0.9,0.6-1.1c-1.9-0.2-3-0.9-3.6-1.9L2.9,9.4L2.7,9.1l0-0.1C2.5,8.4,2.4,7.8,2.4,7.1
		c0-1.2,0.4-1.7,0.9-2.4C2.9,3.3,3.5,2.4,3.5,2.4s0.8-0.2,2.3,1c0.8-0.4,3.1-0.4,4.1-0.1c0.6-0.4,1.8-1.1,2.3-0.9
		c0.1,0.2,0.4,0.8,0.2,2.2c0.2,0.3,1,0.9,1,2.7c0,0.7-0.1,1.2-0.2,1.7l-0.1,0.2c0,0,0,0.1-0.1,0.2L13,9.5c-0.6,1.2-1.7,1.7-3.5,1.9
		c0.6,0.4,0.8,0.9,0.8,2.2s0,1.5,0,1.8c0,0.3,0.2,0.5,0.4,0.6C13.7,14.9,16,11.8,16,8.2z"/>
</g>
</svg>
